<svg xmlns="http://www.w3.org/2000/svg" width="25" height="25" viewBox="0 0 25 25" fill="none">
<path d="M11.9048 5.35718H6.54767C5.9162 5.35718 5.3106 5.60803 4.86408 6.05454C4.41757 6.50106 4.16672 7.10666 4.16672 7.73813V18.4524C4.16672 19.0839 4.41757 19.6895 4.86408 20.136C5.3106 20.5825 5.9162 20.8334 6.54767 20.8334H18.4524C19.0839 20.8334 19.6895 20.5825 20.136 20.136C20.5825 19.6895 20.8334 19.0839 20.8334 18.4524V13.0953" stroke="#383838" stroke-linecap="round" stroke-linejoin="round"/>
<path fill-rule="evenodd" clip-rule="evenodd" d="M20.8333 4.12736C21.1507 4.45552 21.3264 4.89524 21.3227 5.35174C21.3189 5.80824 21.1359 6.24498 20.8131 6.56784L12.5 14.8809L8.92859 16.0714L10.1191 12.5L18.4369 4.11189C18.5941 3.95347 18.7814 3.82801 18.9877 3.74287C19.194 3.65773 19.4152 3.61462 19.6384 3.61606C19.8616 3.6175 20.0822 3.66347 20.2874 3.75127C20.4926 3.83906 20.6782 3.96692 20.8333 4.12736V4.12736Z" stroke="#383838" stroke-linecap="round" stroke-linejoin="round"/>
<path d="M18.4524 6.54764L19.5869 7.73811" stroke="#383838" stroke-linecap="round" stroke-linejoin="round"/>
</svg>
