<svg xmlns="http://www.w3.org/2000/svg" width="30" height="30" viewBox="0 0 30 30" fill="none">
<path d="M27.0919 23.1917C26.2883 22.4753 25.5847 21.654 25.0002 20.75C24.3621 19.5021 23.9796 18.1393 23.8752 16.7417V12.625C23.8807 10.4297 23.0844 8.30789 21.6358 6.6583C20.1873 5.00872 18.1862 3.94487 16.0085 3.66666V2.59166C16.0085 2.2966 15.8913 2.01363 15.6827 1.805C15.4741 1.59637 15.1911 1.47916 14.896 1.47916C14.601 1.47916 14.318 1.59637 14.1094 1.805C13.9007 2.01363 13.7835 2.2966 13.7835 2.59166V3.68332C11.6254 3.9816 9.64851 5.05187 8.21898 6.69591C6.78944 8.33995 6.00414 10.4464 6.00854 12.625V16.7417C5.90417 18.1393 5.52168 19.5021 4.88354 20.75C4.30927 21.6519 3.61703 22.4731 2.8252 23.1917C2.73631 23.2697 2.66507 23.3659 2.61622 23.4736C2.56736 23.5814 2.54202 23.6983 2.54187 23.8167V24.95C2.54187 25.171 2.62967 25.383 2.78595 25.5392C2.94223 25.6955 3.15419 25.7833 3.3752 25.7833H26.5419C26.7629 25.7833 26.9748 25.6955 27.1311 25.5392C27.2874 25.383 27.3752 25.171 27.3752 24.95V23.8167C27.3751 23.6983 27.3497 23.5814 27.3009 23.4736C27.252 23.3659 27.1808 23.2697 27.0919 23.1917ZM4.2752 24.1167C5.05054 23.3677 5.7332 22.5283 6.30854 21.6167C7.11238 20.1096 7.5814 18.4467 7.68354 16.7417V12.625C7.65049 11.6484 7.81431 10.6751 8.16524 9.76305C8.51617 8.85104 9.04705 8.01898 9.72624 7.31641C10.4054 6.61384 11.2191 6.05513 12.1187 5.67355C13.0183 5.29197 13.9855 5.09533 14.9627 5.09533C15.9399 5.09533 16.9071 5.29197 17.8067 5.67355C18.7063 6.05513 19.52 6.61384 20.1992 7.31641C20.8784 8.01898 21.4092 8.85104 21.7602 9.76305C22.1111 10.6751 22.2749 11.6484 22.2419 12.625V16.7417C22.344 18.4467 22.813 20.1096 23.6169 21.6167C24.1922 22.5283 24.8749 23.3677 25.6502 24.1167H4.2752Z" fill="#7D7D7D"/>
<path d="M15.0001 28.5667C15.525 28.5546 16.0288 28.3572 16.4222 28.0095C16.8157 27.6618 17.0735 27.1861 17.1501 26.6667H12.7667C12.8455 27.2002 13.1153 27.6871 13.5261 28.0366C13.937 28.3861 14.4607 28.5745 15.0001 28.5667Z" fill="#7D7D7D"/>
<circle cx="22" cy="8" r="5" fill="#EB5757"/>
</svg>
