<svg xmlns="http://www.w3.org/2000/svg" width="20" height="21" viewBox="0 0 20 21" fill="none">
<path fill-rule="evenodd" clip-rule="evenodd" d="M10 1C11.023 1 12.0041 1.40036 12.7274 2.11299C13.4508 2.82563 13.8571 3.79218 13.8571 4.8V6.06667C13.8571 6.56569 13.7574 7.05983 13.5635 7.52086C13.3697 7.9819 13.0856 8.40081 12.7274 8.75367C12.3692 9.10654 11.944 9.38644 11.4761 9.57741C11.0081 9.76838 10.5065 9.86667 10 9.86667C9.49347 9.86667 8.99191 9.76838 8.52394 9.57741C8.05597 9.38644 7.63076 9.10654 7.27259 8.75367C6.91442 8.40081 6.6303 7.9819 6.43646 7.52086C6.24263 7.05983 6.14286 6.56569 6.14286 6.06667V4.8C6.14286 3.79218 6.54923 2.82563 7.27259 2.11299C7.99594 1.40036 8.97702 1 10 1V1ZM19 18.7333V17.8112C19 13.7743 14.2609 11.1333 10 11.1333C5.73914 11.1333 1 13.7743 1 17.8112V18.7333C1 19.0693 1.13546 19.3915 1.37658 19.629C1.6177 19.8665 1.94472 20 2.28571 20H17.7143C18.0553 20 18.3823 19.8665 18.6234 19.629C18.8645 19.3915 19 19.0693 19 18.7333Z" stroke="#383838" stroke-linecap="round" stroke-linejoin="round"/>
</svg>
